<?xml version="1.0" encoding="utf-8"?>
<!-- Generator: Adobe Illustrator 16.0.0, SVG Export Plug-In . SVG Version: 6.00 Build 0)  -->
<!DOCTYPE svg PUBLIC "-//W3C//DTD SVG 1.1//EN" "http://www.w3.org/Graphics/SVG/1.1/DTD/svg11.dtd">
<svg version="1.1" id="Layer_1" xmlns="http://www.w3.org/2000/svg" xmlns:xlink="http://www.w3.org/1999/xlink" x="0px" y="0px"
	 width="132.932px" height="132.932px" viewBox="0 0 132.932 132.932" enable-background="new 0 0 132.932 132.932"
	 xml:space="preserve">
<circle fill="#141414" cx="66.467" cy="66.466" r="61.335"/>
<path fill="#141414" d="M66.038,3.09h0.855V0h-0.855V3.09z M66.038,132.932h0.855v-3.09h-0.855V132.932z M3.094,66.035H0v0.861
	h3.094V66.035z M129.842,66.035v0.861h3.09v-0.861H129.842z M111.583,21.955l2.187-2.186l-0.61-0.607l-2.186,2.186L111.583,21.955z
	 M21.347,110.972l-2.185,2.19l0.608,0.604l2.188-2.184L21.347,110.972z M21.959,21.348l-2.188-2.186l-0.608,0.607l2.185,2.186
	L21.959,21.348z M110.973,111.582l2.186,2.184l0.61-0.604l-2.187-2.19L110.973,111.582z M42.611,7.748l-1.183-2.854l-0.792,0.328
	l1.18,2.857L42.611,7.748z M90.322,125.184l1.184,2.854l0.791-0.33l-1.182-2.857L90.322,125.184z M7.753,90.322l-2.858,1.183
	l0.331,0.793l2.854-1.185L7.753,90.322z M125.182,42.607l2.854-1.181l-0.328-0.794l-2.855,1.184L125.182,42.607z M91.115,8.08
	l1.182-2.857l-0.791-0.328l-1.184,2.854L91.115,8.08z M41.816,124.85l-1.18,2.857l0.792,0.33l1.183-2.854L41.816,124.85z
	 M8.08,41.816l-2.854-1.184l-0.331,0.794l2.858,1.183L8.08,41.816z M124.852,91.113l2.855,1.185l0.328-0.793l-2.854-1.183
	L124.852,91.113z M54.526,4.225l-0.603-3.033l-0.845,0.168l0.602,3.031L54.526,4.225z M78.411,128.706l0.602,3.031l0.841-0.168
	l-0.604-3.033L78.411,128.706z M4.228,78.408l-3.032,0.604l0.166,0.84l3.03-0.6L4.228,78.408z M128.707,54.523l3.032-0.604
	l-0.168-0.844l-3.031,0.604L128.707,54.523z M102.035,14.008l1.715-2.571l-0.717-0.477l-1.718,2.571L102.035,14.008z M30.9,118.921
	l-1.717,2.569l0.714,0.479l1.718-2.57L30.9,118.921z M14.014,30.898l-2.574-1.717l-0.476,0.713l2.573,1.718L14.014,30.898z
	 M118.922,102.032l2.57,1.717l0.475-0.717l-2.568-1.718L118.922,102.032z M31.616,13.531l-1.718-2.571l-0.714,0.477l1.717,2.571
	L31.616,13.531z M101.315,119.399l1.718,2.57l0.717-0.479l-1.715-2.569L101.315,119.399z M13.537,101.314l-2.573,1.718l0.476,0.717
	l2.574-1.717L13.537,101.314z M119.399,31.612l2.568-1.718l-0.475-0.713l-2.57,1.717L119.399,31.612z M78.411,4.225l0.838,0.166
	l0.604-3.031l-0.841-0.168L78.411,4.225z M53.079,131.569l0.845,0.168l0.603-3.031l-0.846-0.17L53.079,131.569z M4.392,53.681
	l-3.03-0.604L1.196,53.92l3.032,0.604L4.392,53.681z M128.54,79.252l3.031,0.6l0.168-0.84l-3.032-0.604L128.54,79.252z
	 M60.682,3.353l-0.301-3.075L59.527,0.36l0.302,3.077L60.682,3.353z M72.25,129.575l0.302,3.078l0.855-0.085l-0.302-3.074
	L72.25,129.575z M3.354,72.251l-3.075,0.302l0.084,0.854l3.074-0.301L3.354,72.251z M129.577,60.682l3.076-0.305l-0.084-0.854
	l-3.074,0.304L129.577,60.682z M107.003,17.748l1.962-2.389l-0.664-0.547l-1.964,2.391L107.003,17.748z M25.928,115.184
	l-1.958,2.389l0.665,0.544l1.962-2.388L25.928,115.184z M17.75,25.928l-2.392-1.962l-0.543,0.665l2.39,1.961L17.75,25.928z
	 M115.184,107.002l2.389,1.962l0.545-0.662l-2.393-1.962L115.184,107.002z M36.973,10.371l-1.459-2.726l-0.759,0.403l1.458,2.727
	L36.973,10.371z M95.96,122.56l1.458,2.727l0.758-0.407l-1.457-2.725L95.96,122.56z M10.372,95.961l-2.728,1.457l0.409,0.759
	l2.725-1.459L10.372,95.961z M122.563,36.969l2.725-1.457l-0.408-0.759l-2.723,1.457L122.563,36.969z M85.273,5.943l0.897-2.957
	l-0.82-0.251l-0.898,2.958L85.273,5.943z M47.659,126.985l-0.896,2.96l0.82,0.247l0.898-2.956L47.659,126.985z M5.942,47.657
	l-2.956-0.898l-0.249,0.825l2.958,0.896L5.942,47.657z M126.987,85.273l2.959,0.896l0.249-0.819l-2.955-0.901L126.987,85.273z
	 M48.481,5.693l-0.898-2.958l-0.82,0.249l0.896,2.959L48.481,5.693z M84.452,127.236l0.898,2.956l0.818-0.247l-0.896-2.96
	L84.452,127.236z M5.696,84.449l-2.958,0.901l0.249,0.819l2.956-0.896L5.696,84.449z M127.24,48.479l2.955-0.895l-0.249-0.825
	l-2.959,0.898L127.24,48.479z M96.719,10.775l1.457-2.727l-0.758-0.403l-1.458,2.726L96.719,10.775z M36.213,122.154l-1.458,2.725
	l0.759,0.407l1.459-2.727L36.213,122.154z M10.778,36.21l-2.725-1.457l-0.409,0.759l2.728,1.457L10.778,36.21z M122.157,96.718
	l2.723,1.459l0.408-0.759l-2.725-1.457L122.157,96.718z M26.597,17.203l-1.962-2.391l-0.665,0.547l1.958,2.389L26.597,17.203z
	 M106.337,115.729l1.964,2.388l0.664-0.544l-1.962-2.389L106.337,115.729z M17.205,106.34l-2.386,1.962l0.54,0.662l2.392-1.962
	L17.205,106.34z M115.725,26.592l2.395-1.961l-0.547-0.665l-2.389,1.962L115.725,26.592z M72.25,3.353l0.855,0.085l0.302-3.077
	l-0.855-0.083L72.25,3.353z M59.527,132.568l0.854,0.085l0.303-3.078l-0.855-0.084L59.527,132.568z M3.438,59.826l-3.074-0.304
	l-0.084,0.854l3.075,0.305L3.438,59.826z M129.495,73.106l3.074,0.301l0.084-0.856l-3.076-0.3L129.495,73.106z M63.788,3.145
	l-0.155-3.088L62.776,0.1l0.152,3.088L63.788,3.145z M69.146,129.785l0.157,3.085l0.852-0.04l-0.146-3.091L69.146,129.785z
	 M3.146,69.146l-3.085,0.151l0.042,0.86l3.086-0.154L3.146,69.146z M129.785,63.786l3.087-0.151l-0.039-0.859l-3.09,0.151
	L129.785,63.786z M109.342,19.797l2.078-2.293l-0.639-0.576l-2.072,2.29L109.342,19.797z M23.59,113.135l-2.078,2.29L22.149,116
	l2.074-2.289L23.59,113.135z M19.799,23.588l-2.29-2.078l-0.58,0.637l2.289,2.076L19.799,23.588z M113.134,109.339l2.291,2.079
	l0.577-0.637l-2.287-2.072L113.134,109.339z M39.76,8.99l-1.322-2.794l-0.776,0.367l1.321,2.794L39.76,8.99z M93.172,123.939
	l1.324,2.794l0.777-0.365l-1.322-2.796L93.172,123.939z M8.994,93.171l-2.795,1.324l0.367,0.777l2.796-1.323L8.994,93.171z
	 M123.942,39.758l2.794-1.324l-0.368-0.774l-2.795,1.321L123.942,39.758z M88.221,6.939l1.041-2.912l-0.811-0.289L87.413,6.65
	L88.221,6.939z M44.714,125.988l-1.045,2.913l0.81,0.287l1.041-2.909L44.714,125.988z M6.941,44.711L4.03,43.668l-0.289,0.811
	l2.911,1.043L6.941,44.711z M125.991,88.221l2.913,1.043l0.288-0.812l-2.912-1.041L125.991,88.221z M49.901,2.093l0.75,3
	l0.832-0.208l-0.748-2.998L49.901,2.093z M81.446,128.042l0.754,2.999l0.83-0.207l-0.748-2.998L81.446,128.042z M4.888,81.445
	L1.89,82.198l0.208,0.833l3-0.755L4.888,81.445z M128.045,51.483l2.998-0.752l-0.207-0.833l-2.998,0.75L128.045,51.483z
	 M99.417,12.326l1.585-2.65l-0.734-0.442l-1.587,2.653L99.417,12.326z M33.516,120.604l-1.585,2.649l0.734,0.445l1.588-2.653
	L33.516,120.604z M12.33,33.518l-2.653-1.592l-0.441,0.738l2.651,1.588L12.33,33.518z M120.604,99.411l2.65,1.592l0.439-0.736
	l-2.648-1.59L120.604,99.411z M29.059,15.305l-1.842-2.482l-0.689,0.513l1.843,2.481L29.059,15.305z M103.873,117.622l1.841,2.485
	l0.689-0.511l-1.844-2.486L103.873,117.622z M15.309,103.867l-2.483,1.847l0.513,0.689l2.482-1.843L15.309,103.867z M117.628,29.058
	l2.481-1.843l-0.512-0.688l-2.483,1.84L117.628,29.058z M75.34,3.714l0.849,0.125l0.454-3.058l-0.848-0.128L75.34,3.714z
	 M56.29,132.146l0.85,0.131l0.455-3.062l-0.85-0.126L56.29,132.146z M3.841,56.74l-3.056-0.453L0.658,57.14l3.057,0.452L3.841,56.74
	z M129.092,76.189l3.057,0.453l0.127-0.853l-3.055-0.453L129.092,76.189z M57.594,3.714l-0.455-3.058l-0.85,0.125l0.455,3.058
	L57.594,3.714z M75.34,129.216l0.455,3.062l0.848-0.129l-0.454-3.059L75.34,129.216z M3.715,75.337L0.658,75.79l0.126,0.853
	l3.056-0.453L3.715,75.337z M129.217,57.592l3.059-0.452l-0.127-0.853l-3.057,0.453L129.217,57.592z M104.559,15.818l1.844-2.483
	l-0.692-0.513l-1.838,2.482L104.559,15.818z M28.371,117.11l-1.843,2.486l0.689,0.511l1.842-2.485L28.371,117.11z M15.818,28.367
	l-2.482-1.84l-0.51,0.688l2.483,1.843L15.818,28.367z M117.115,104.561l2.483,1.843l0.508-0.689l-2.478-1.847L117.115,104.561z
	 M34.256,11.887l-1.592-2.653L31.93,9.676l1.585,2.65L34.256,11.887z M98.681,121.045l1.587,2.653l0.734-0.445l-1.585-2.649
	L98.681,121.045z M11.887,98.677l-2.651,1.592l0.441,0.734l2.653-1.592L11.887,98.677z M121.045,34.252l2.648-1.588l-0.439-0.738
	l-2.65,1.592L121.045,34.252z M82.282,5.096l0.748-3.003L82.2,1.887l-0.754,2.998L82.282,5.096z M49.901,130.834l0.834,0.207
	l0.748-2.999l-0.832-0.206L49.901,130.834z M5.097,50.648l-3-0.75L1.89,50.731l2.998,0.752L5.097,50.648z M127.838,82.276
	l2.998,0.755l0.207-0.833l-2.998-0.753L127.838,82.276z M45.52,6.65l-1.041-2.912l-0.81,0.289l1.045,2.912L45.52,6.65z
	 M87.409,126.279l1.043,2.909l0.811-0.287l-1.041-2.913L87.409,126.279z M6.651,87.41l-2.911,1.041l0.289,0.812l2.912-1.046
	L6.651,87.41z M126.28,45.521l2.912-1.043l-0.288-0.811l-2.915,1.043L126.28,45.521z M93.952,9.357l1.319-2.794l-0.774-0.367
	L93.172,8.99L93.952,9.357z M38.983,123.572l-1.321,2.796l0.776,0.365l1.322-2.794L38.983,123.572z M9.362,38.98l-2.796-1.323
	l-0.367,0.776l2.795,1.324L9.362,38.98z M123.573,93.949l2.795,1.323l0.368-0.781l-2.794-1.32L123.573,93.949z M24.223,19.218
	l-2.074-2.29l-0.637,0.576l2.078,2.293L24.223,19.218z M108.709,113.711l2.072,2.289l0.639-0.575l-2.078-2.29L108.709,113.711z
	 M19.219,108.709l-2.289,2.072l0.58,0.637l2.29-2.079L19.219,108.709z M113.715,24.223l2.287-2.076l-0.577-0.637l-2.291,2.078
	L113.715,24.223z M69.146,3.145l0.862,0.043l0.15-3.088l-0.855-0.043L69.146,3.145z M62.776,132.83l0.856,0.04l0.155-3.085
	l-0.857-0.046L62.776,132.83z M3.189,62.927l-3.086-0.151l-0.042,0.859l3.085,0.151L3.189,62.927z M129.743,70.003l3.09,0.151
	l0.039-0.857l-3.087-0.151L129.743,70.003z M65.342,3.098l-0.076-3.091l-0.861,0.022l0.076,3.09L65.342,3.098z M67.595,129.829
	l0.072,3.091l0.861-0.021l-0.075-3.086L67.595,129.829z M3.1,67.588l-3.086,0.08l0.018,0.858l3.088-0.077L3.1,67.588z
	 M129.833,65.339l3.088-0.077l-0.02-0.856l-3.088,0.077L129.833,65.339z M110.479,20.861l2.13-2.24l-0.623-0.592l-2.132,2.24
	L110.479,20.861z M22.457,112.069l-2.132,2.238l0.623,0.594l2.134-2.241L22.457,112.069z M20.865,22.455l-2.239-2.132l-0.593,0.622
	l2.239,2.131L20.865,22.455z M112.069,110.476l2.237,2.131l0.597-0.622l-2.239-2.132L112.069,110.476z M41.177,8.352l-1.251-2.826
	l-0.787,0.35l1.254,2.826L41.177,8.352z M91.754,124.578l1.256,2.826l0.783-0.35l-1.252-2.824L91.754,124.578z M8.355,91.754
	l-2.827,1.255l0.349,0.784l2.827-1.25L8.355,91.754z M124.577,41.179l2.828-1.254l-0.349-0.788l-2.826,1.254L124.577,41.179z
	 M89.676,7.491l1.111-2.886l-0.804-0.308L88.87,7.182L89.676,7.491z M43.26,125.438l-1.112,2.886l0.8,0.308l1.111-2.883
	L43.26,125.438z M7.493,43.258l-2.884-1.115l-0.309,0.805l2.882,1.111L7.493,43.258z M125.441,89.676l2.884,1.111l0.309-0.801
	l-2.884-1.117L125.441,89.676z M53,4.535l-0.678-3.018l-0.84,0.189l0.682,3.018L53,4.535z M79.93,128.395l0.68,3.015l0.836-0.187
	l-0.678-3.017L79.93,128.395z M4.542,79.931l-3.02,0.68l0.187,0.835l3.018-0.676L4.542,79.931z M128.395,52.999l3.018-0.678
	l-0.189-0.838l-3.017,0.676L128.395,52.999z M100.733,13.152l1.654-2.612l-0.725-0.46l-1.652,2.613L100.733,13.152z M32.199,119.777
	l-1.651,2.612l0.724,0.459l1.651-2.613L32.199,119.777z M13.154,32.197l-2.613-1.656l-0.457,0.729l2.609,1.652L13.154,32.197z
	 M119.778,100.731l2.614,1.656l0.458-0.728l-2.612-1.656L119.778,100.731z M30.327,14.404l-1.783-2.529l-0.7,0.496l1.779,2.526
	L30.327,14.404z M102.606,118.527l1.782,2.527l0.702-0.496l-1.779-2.527L102.606,118.527z M14.406,102.605l-2.53,1.775l0.498,0.706
	l2.528-1.78L14.406,102.605z M118.53,30.324l2.525-1.779l-0.492-0.705l-2.527,1.781L118.53,30.324z M78.252,1.051l-0.846-0.148
	l-0.531,3.047l0.848,0.146L78.252,1.051z M54.679,131.88l0.847,0.146l0.53-3.046l-0.845-0.147L54.679,131.88z M4.098,55.208
	l-3.044-0.526l-0.145,0.845l3.042,0.527L4.098,55.208z M128.834,77.724l3.045,0.528l0.148-0.848l-3.047-0.529L128.834,77.724z
	 M59.134,3.515l-0.378-3.067l-0.853,0.102l0.379,3.07L59.134,3.515z M73.795,129.416l0.38,3.068l0.854-0.106l-0.381-3.067
	L73.795,129.416z M3.517,73.796l-3.067,0.38l0.104,0.851l3.066-0.378L3.517,73.796z M129.416,59.136l3.07-0.38l-0.104-0.853
	l-3.069,0.379L129.416,59.136z M105.794,16.768l1.903-2.438l-0.681-0.527l-1.9,2.436L105.794,16.768z M27.141,116.162l-1.903,2.437
	l0.675,0.53l1.903-2.437L27.141,116.162z M16.768,27.137l-2.437-1.902l-0.528,0.679l2.438,1.9L16.768,27.137z M116.162,105.795
	l2.437,1.9l0.531-0.677l-2.438-1.9L116.162,105.795z M35.605,11.108l-1.524-2.686l-0.748,0.423l1.524,2.688L35.605,11.108z
	 M97.331,121.82l1.521,2.688l0.75-0.424l-1.525-2.689L97.331,121.82z M11.113,97.33l-2.689,1.521l0.424,0.749l2.69-1.526
	L11.113,97.33z M121.823,35.603l2.686-1.524l-0.424-0.747l-2.688,1.522L121.823,35.603z M83.78,5.5l0.825-2.98l-0.827-0.228
	l-0.824,2.979L83.78,5.5z M49.148,127.43l-0.82,2.98l0.825,0.228l0.827-2.979L49.148,127.43z M5.503,49.148l-2.979-0.824
	l-0.229,0.828l2.975,0.825L5.503,49.148z M127.43,83.783l2.979,0.82l0.229-0.826l-2.977-0.823L127.43,83.783z M46.995,6.154
	l-0.968-2.937L45.211,3.49l0.969,2.932L46.995,6.154z M85.938,126.777l0.968,2.937l0.817-0.271l-0.971-2.938L85.938,126.777z
	 M6.158,85.938l-2.935,0.966l0.265,0.82l2.939-0.971L6.158,85.938z M126.777,46.993l2.935-0.971l-0.27-0.814l-2.938,0.971
	L126.777,46.993z M95.342,10.049l1.391-2.76L95.965,6.9l-1.391,2.764L95.342,10.049z M37.589,122.88l-1.392,2.761l0.769,0.388
	l1.391-2.761L37.589,122.88z M10.052,37.588l-2.759-1.39l-0.388,0.768l2.761,1.39L10.052,37.588z M122.883,95.341l2.76,1.391
	l0.385-0.769l-2.758-1.389L122.883,95.341z M25.399,18.195l-2.02-2.34l-0.652,0.561l2.019,2.34L25.399,18.195z M107.536,114.736
	l2.02,2.337l0.653-0.561l-2.023-2.34L107.536,114.736z M18.2,107.534l-2.34,2.02l0.558,0.652l2.343-2.021L18.2,107.534z
	 M114.735,25.396l2.34-2.021l-0.561-0.649l-2.34,2.021L114.735,25.396z M71.785,0.21L70.93,0.146l-0.233,3.082l0.858,0.062
	L71.785,0.21z M61.15,132.72l0.856,0.065l0.227-3.083l-0.855-0.065L61.15,132.72z M3.298,61.376l-3.087-0.228L0.15,62.006
	l3.083,0.226L3.298,61.376z M129.637,71.556l3.085,0.228l0.06-0.859l-3.078-0.228L129.637,71.556z M62.233,3.229l-0.227-3.082
	L61.148,0.21l0.229,3.083L62.233,3.229z M70.697,129.702l0.233,3.077l0.854-0.06l-0.229-3.083L70.697,129.702z M3.233,70.696
	L0.15,70.924l0.062,0.859l3.087-0.228L3.233,70.696z M129.704,62.231l3.078-0.226l-0.062-0.857l-3.083,0.228L129.704,62.231z
	 M108.185,18.756l2.023-2.34l-0.657-0.561l-2.016,2.34L108.185,18.756z M24.747,114.173l-2.019,2.34l0.652,0.561l2.02-2.337
	L24.747,114.173z M18.761,24.746l-2.343-2.021l-0.562,0.649l2.343,2.021L18.761,24.746z M114.174,108.185l2.34,2.019l0.561-0.649
	l-2.34-2.02L114.174,108.185z M38.357,9.664L36.966,6.9l-0.769,0.389l1.392,2.762L38.357,9.664z M94.579,123.266l1.387,2.763
	l0.768-0.388l-1.391-2.761L94.579,123.266z M9.666,94.574l-2.761,1.392l0.388,0.769l2.759-1.394L9.666,94.574z M123.27,38.355
	l2.758-1.39l-0.388-0.769l-2.757,1.391L123.27,38.355z M86.752,6.422l0.967-2.934l-0.813-0.271l-0.968,2.935L86.752,6.422z
	 M46.18,126.507l-0.969,2.937l0.815,0.271l0.972-2.937L46.18,126.507z M6.423,46.179l-2.935-0.968L3.22,46.026l2.935,0.967
	L6.423,46.179z M126.504,86.753l2.938,0.966l0.27-0.815l-2.935-0.966L126.504,86.753z M49.98,5.271l-0.827-2.979L48.328,2.52
	l0.82,2.98L49.98,5.271z M82.954,127.659l0.826,2.979l0.825-0.228l-0.823-2.98L82.954,127.659z M5.273,82.954l-2.978,0.823
	l0.229,0.826l2.979-0.82L5.273,82.954z M127.663,49.978l2.973-0.825l-0.226-0.828l-2.981,0.824L127.663,49.978z M98.077,11.533
	l1.525-2.688l-0.75-0.423l-1.523,2.686L98.077,11.533z M34.857,121.395l-1.524,2.689l0.748,0.424l1.524-2.688L34.857,121.395z
	 M11.538,34.854l-2.69-1.522l-0.424,0.747l2.689,1.524L11.538,34.854z M121.396,98.074l2.688,1.524l0.424-0.747l-2.686-1.521
	L121.396,98.074z M27.816,16.238l-1.903-2.436l-0.678,0.529l1.905,2.436L27.816,16.238z M105.117,116.692l1.903,2.435l0.678-0.528
	l-1.903-2.437L105.117,116.692z M16.241,105.118l-2.438,1.9l0.528,0.677l2.437-1.9L16.241,105.118z M116.692,27.813l2.438-1.9
	l-0.531-0.679l-2.437,1.902L116.692,27.813z M73.795,3.513l0.853,0.106l0.381-3.07l-0.854-0.104L73.795,3.513z M57.906,132.378
	l0.851,0.106l0.383-3.068l-0.852-0.107L57.906,132.378z M3.62,58.283l-3.066-0.38L0.45,58.756l3.067,0.38L3.62,58.283z
	 M129.313,74.648l3.068,0.376l0.104-0.849l-3.07-0.38L129.313,74.648z M56.055,3.949l-0.529-3.047l-0.847,0.148l0.53,3.045
	L56.055,3.949z M76.875,128.98l0.531,3.046l0.848-0.146l-0.531-3.047L76.875,128.98z M3.951,76.875l-3.046,0.529l0.148,0.848
	l3.044-0.528L3.951,76.875z M128.981,56.054l3.047-0.527l-0.15-0.845l-3.043,0.526L128.981,56.054z M103.311,14.897l1.776-2.526
	l-0.701-0.496l-1.78,2.529L103.311,14.897z M29.624,118.031l-1.779,2.527l0.7,0.496l1.783-2.527L29.624,118.031z M14.902,29.623
	l-2.528-1.781l-0.498,0.705l2.53,1.777L14.902,29.623z M118.036,103.307l2.523,1.78l0.496-0.706l-2.525-1.775L118.036,103.307z
	 M32.923,12.693l-1.651-2.613l-0.729,0.46l1.656,2.612L32.923,12.693z M100.01,120.235l1.652,2.613l0.725-0.459l-1.654-2.612
	L100.01,120.235z M12.696,100.007l-2.611,1.653l0.457,0.728l2.613-1.655L12.696,100.007z M120.238,32.922l2.612-1.654l-0.458-0.727
	l-2.614,1.654L120.238,32.922z M81.446,1.707L80.61,1.518l-0.68,3.018l0.838,0.189L81.446,1.707z M51.485,131.223l0.838,0.187
	L53,128.395l-0.836-0.188L51.485,131.223z M4.727,52.162l-3.018-0.679l-0.187,0.838l3.016,0.678L4.727,52.162z M128.207,80.77
	l3.017,0.676l0.189-0.835l-3.018-0.681L128.207,80.77z M44.059,7.182l-1.111-2.884l-0.8,0.31l1.112,2.884L44.059,7.182z
	 M88.87,125.749l1.114,2.883l0.804-0.308l-1.111-2.886L88.87,125.749z M7.183,88.873l-2.882,1.113l0.309,0.801l2.884-1.111
	L7.183,88.873z M125.75,44.059l2.884-1.115l-0.309-0.801l-2.884,1.111L125.75,44.059z M92.54,8.701l1.254-2.826l-0.783-0.35
	l-1.258,2.826L92.54,8.701z M40.394,124.23l-1.254,2.824l0.787,0.35l1.251-2.826L40.394,124.23z M8.704,40.391l-2.827-1.254
	l-0.349,0.788l2.827,1.254L8.704,40.391z M124.23,92.543l2.826,1.25l0.351-0.789l-2.83-1.25L124.23,92.543z M23.077,20.27
	l-2.13-2.24l-0.623,0.594l2.132,2.238L23.077,20.27z M109.854,112.658l2.135,2.243l0.62-0.594l-2.13-2.24L109.854,112.658z
	 M20.272,109.853l-2.239,2.132l0.595,0.622l2.237-2.131L20.272,109.853z M112.664,23.076l2.235-2.131l-0.593-0.622l-2.237,2.13
	L112.664,23.076z M68.529,0.029l-0.861-0.022l-0.072,3.091l0.858,0.021L68.529,0.029z M64.405,132.898l0.861,0.021l0.076-3.091
	l-0.861-0.02L64.405,132.898z M3.119,64.482l-3.088-0.077l-0.018,0.856L3.1,65.339L3.119,64.482z M129.813,68.449l3.088,0.076
	l0.02-0.857l-3.088-0.08L129.813,68.449z"/>
<g>
	<path fill="#FFFFFF" d="M71.679,80.877v6.944h-21.66v-6.944h5.23V53.661h-5.23v-6.944h21.66c5.043,0,8.939,1.182,11.688,3.546
		c2.748,2.364,4.122,5.546,4.122,9.545c0,2.285-0.482,4.358-1.447,6.22c-0.966,1.862-2.202,3.291-3.709,4.285
		c-1.507,0.995-3.231,1.675-5.171,2.039c-1.941,0.364-4.369,0.547-7.285,0.547h-3.93v7.979H71.679z M65.947,66.042h1.596
		c3.664,0,6.023-0.595,7.077-1.787s1.581-2.675,1.581-4.447c0-1.497-0.364-2.773-1.094-3.827c-0.729-1.054-1.565-1.704-2.512-1.95
		c-0.945-0.246-2.492-0.37-4.639-0.37h-2.009V66.042z"/>
</g>
<path fill="none" d="M65.311,25.417L37.426,37.424l-2.308-2.308c-8.023,8.023-12.986,19.106-12.986,31.35
	s4.962,23.326,12.985,31.349l2.309-2.309l29.702,12.019l-1.547,3.253c0.296,0.006,0.588,0.022,0.885,0.022
	c24.485,0,44.334-19.849,44.334-44.334c0-19.538-12.644-36.111-30.19-42.016l0.19,4.289L65.311,25.417z"/>
<path fill="#FFFFFF" d="M22.131,67.466c0-12.243,4.963-23.327,12.986-31.35l-6.745-6.745c-9.75,9.75-15.779,23.218-15.779,38.095
	c0,14.876,6.03,28.345,15.779,38.094l6.745-6.745C27.094,90.792,22.131,79.709,22.131,67.466z"/>
<path fill="#FFFFFF" d="M66.239,32.973h0.453v-4.234h-0.453V32.973z M66.239,104.192h0.453v-4.234h-0.453V104.192z M99.959,66.238
	v0.453h4.234v-0.453H99.959z M32.974,66.238h-4.234v0.453h4.234V66.238z M90.309,42.943l2.994-2.995l-0.32-0.32l-2.994,2.992
	L90.309,42.943z M42.623,89.986l-2.994,2.995l0.32,0.321l2.995-2.994L42.623,89.986z M89.989,90.31l2.994,2.993l0.32-0.321
	l-2.994-2.994L89.989,90.31z M42.944,42.621l-2.995-2.993l-0.32,0.32l2.994,2.995L42.944,42.621z M53.859,35.435l-1.62-3.912
	l-0.42,0.174l1.62,3.912L53.859,35.435z M79.073,97.495l1.621,3.912l0.42-0.174l-1.621-3.911L79.073,97.495z M97.496,53.858
	l3.912-1.621l-0.173-0.42l-3.912,1.621L97.496,53.858z M35.437,79.072l-3.912,1.62l0.173,0.42l3.913-1.62L35.437,79.072z
	 M79.493,35.608l1.621-3.912l-0.42-0.174l-1.621,3.912L79.493,35.608z M53.439,97.321l-1.62,3.912l0.42,0.174l1.62-3.912
	L53.439,97.321z M97.323,79.492l3.912,1.62l0.173-0.42l-3.912-1.62L97.323,79.492z M35.61,53.438l-3.913-1.621l-0.173,0.42
	l3.913,1.621L35.61,53.438z M58.883,29.507l0.826,4.153l0.445-0.088l-0.827-4.154L58.883,29.507z M72.778,99.358l0.826,4.153
	l0.443-0.089l-0.826-4.152L72.778,99.358z M99.36,60.153l4.153-0.825l-0.089-0.446l-4.154,0.826L99.36,60.153z M33.573,72.776
	l-4.153,0.826l0.089,0.445l4.153-0.826L33.573,72.776z M85.262,38.743l2.353-3.521l-0.378-0.252l-2.352,3.52L85.262,38.743z
	 M47.669,94.187l-2.353,3.521l0.377,0.251l2.354-3.52L47.669,94.187z M94.188,85.261l3.521,2.353l0.252-0.377l-3.521-2.353
	L94.188,85.261z M38.744,47.669l-3.521-2.353l-0.252,0.377l3.522,2.353L38.744,47.669z M48.047,38.49l-2.354-3.52l-0.377,0.252
	l2.353,3.521L48.047,38.49z M84.885,94.439l2.353,3.52l0.377-0.251l-2.353-3.521L84.885,94.439z M94.44,48.046l3.521-2.353
	l-0.252-0.377l-3.521,2.353L94.44,48.046z M38.492,84.884l-3.521,2.353l0.252,0.377l3.521-2.353L38.492,84.884z M72.778,33.572
	l0.443,0.088l0.828-4.153l-0.445-0.089L72.778,33.572z M58.883,103.423l0.444,0.089l0.827-4.154l-0.445-0.089L58.883,103.423z
	 M99.27,73.222l4.153,0.826l0.089-0.445l-4.152-0.825L99.27,73.222z M33.662,59.708l-4.154-0.827l-0.088,0.446l4.154,0.826
	L33.662,59.708z M62.542,28.942l0.415,4.214l0.451-0.045l-0.414-4.213L62.542,28.942z M69.524,99.819l0.414,4.215l0.451-0.046
	l-0.414-4.214L69.524,99.819z M99.819,63.408l4.215-0.415l-0.045-0.451l-4.214,0.414L99.819,63.408z M33.113,69.521l-4.214,0.416
	l0.044,0.451l4.214-0.415L33.113,69.521z M87.889,40.72l2.686-3.273l-0.35-0.289l-2.688,3.274L87.889,40.72z M45.043,92.211
	l-2.686,3.273l0.351,0.289l2.687-3.274L45.043,92.211z M92.212,87.889l3.273,2.685l0.288-0.351L92.5,87.538L92.212,87.889z
	 M40.72,45.042l-3.274-2.687l-0.287,0.353l3.273,2.686L40.72,45.042z M50.877,36.82l-1.996-3.734l-0.4,0.214l1.996,3.734
	L50.877,36.82z M82.053,96.11l1.996,3.733l0.4-0.213l-1.996-3.734L82.053,96.11z M96.112,50.876l3.732-1.996l-0.213-0.399
	l-3.734,1.997L96.112,50.876z M36.821,82.053l-3.734,1.997l0.214,0.4l3.734-1.997L36.821,82.053z M77.634,30.428L77.2,30.297
	l-1.229,4.053l0.434,0.131L77.634,30.428z M55.297,102.502l0.434,0.132l1.229-4.053l-0.435-0.131L55.297,102.502z M98.45,76.404
	l4.053,1.229l0.131-0.434l-4.051-1.229L98.45,76.404z M34.481,56.526l-4.052-1.23l-0.131,0.434l4.052,1.23L34.481,56.526z
	 M55.297,30.428l1.229,4.053l0.435-0.131l-1.229-4.053L55.297,30.428z M75.971,98.581l1.229,4.053l0.435-0.132l-1.229-4.051
	L75.971,98.581z M98.583,56.959l4.052-1.229l-0.132-0.434l-4.053,1.229L98.583,56.959z M34.35,75.971L30.298,77.2l0.131,0.434
	l4.052-1.23L34.35,75.971z M82.454,37.034L84.45,33.3l-0.4-0.214l-1.996,3.734L82.454,37.034z M50.477,95.896l-1.996,3.735
	l0.4,0.213l1.996-3.734L50.477,95.896z M95.897,82.453l3.734,1.997l0.215-0.4l-3.734-1.997L95.897,82.453z M37.036,50.476
	l-3.735-1.996l-0.214,0.4l3.735,1.996L37.036,50.476z M45.394,40.432l-2.687-3.274l-0.351,0.289l2.686,3.273L45.394,40.432z
	 M87.538,92.499l2.688,3.274l0.35-0.289l-2.686-3.273L87.538,92.499z M92.5,45.394l3.271-2.687l-0.287-0.352l-3.272,2.687
	L92.5,45.394z M40.431,87.538l-3.273,2.685l0.288,0.351l3.274-2.685L40.431,87.538z M69.523,33.111l0.452,0.045l0.416-4.214
	l-0.452-0.046L69.523,33.111z M62.542,103.988l0.452,0.046l0.414-4.215l-0.451-0.045L62.542,103.988z M99.774,69.975l4.215,0.414
	l0.045-0.451l-4.215-0.414L99.774,69.975z M33.157,62.956l-4.216-0.414l-0.044,0.451l4.215,0.415L33.157,62.956z M64.388,28.795
	l0.208,4.23l0.453-0.023l-0.209-4.23L64.388,28.795z M67.882,99.929l0.208,4.229l0.453-0.023l-0.208-4.228L67.882,99.929z
	 M99.929,65.049l4.229-0.208l-0.022-0.453l-4.229,0.207L99.929,65.049z M33.003,67.882l-4.229,0.207l0.022,0.454l4.229-0.208
	L33.003,67.882z M89.126,41.801l2.844-3.137l-0.337-0.305l-2.844,3.138L89.126,41.801z M43.806,91.13l-2.844,3.137l0.336,0.305
	l2.844-3.138L43.806,91.13z M91.129,89.126l3.139,2.843l0.305-0.335l-3.137-2.845L91.129,89.126z M41.802,43.806l-3.138-2.844
	l-0.305,0.334l3.137,2.845L41.802,43.806z M52.35,36.091l-1.811-3.827l-0.408,0.192l1.809,3.828L52.35,36.091z M80.581,96.839
	l1.811,3.828l0.41-0.193l-1.811-3.828L80.581,96.839z M96.839,52.35l3.827-1.81l-0.193-0.41l-3.827,1.811L96.839,52.35z
	 M36.092,80.58l-3.828,1.81l0.194,0.411l3.827-1.811L36.092,80.58z M77.963,35.007l1.426-3.987l-0.428-0.152l-1.426,3.986
	L77.963,35.007z M54.969,97.923l-1.427,3.988l0.427,0.152l1.426-3.988L54.969,97.923z M97.924,77.962l3.986,1.427l0.152-0.428
	l-3.985-1.427L97.924,77.962z M35.007,54.969l-3.986-1.428l-0.153,0.428l3.986,1.428L35.007,54.969z M57.079,29.924l1.029,4.108
	l0.439-0.111l-1.028-4.106L57.079,29.924z M74.383,99.009l1.029,4.107l0.439-0.108l-1.028-4.109L74.383,99.009z M99.009,58.547
	l4.108-1.029l-0.11-0.438l-4.108,1.028L99.009,58.547z M33.922,74.382l-4.108,1.029l0.111,0.439l4.107-1.028L33.922,74.382z
	 M83.879,37.854l2.178-3.632l-0.391-0.231l-2.176,3.631L83.879,37.854z M49.051,95.076l-2.176,3.633l0.389,0.231l2.178-3.631
	L49.051,95.076z M95.077,83.877l3.633,2.178l0.232-0.389l-3.631-2.177L95.077,83.877z M37.855,49.053l-3.632-2.178l-0.233,0.389
	l3.633,2.178L37.855,49.053z M46.696,39.428l-2.521-3.399l-0.365,0.271l2.523,3.4L46.696,39.428z M86.235,93.503l2.523,3.399
	l0.363-0.271l-2.523-3.4L86.235,93.503z M93.502,46.695l3.4-2.523l-0.27-0.362l-3.401,2.522L93.502,46.695z M39.429,86.234
	l-3.402,2.524l0.271,0.362l3.401-2.523L39.429,86.234z M71.156,33.303l0.448,0.065l0.622-4.188l-0.448-0.066L71.156,33.303z
	 M60.706,103.751l0.449,0.065l0.621-4.189l-0.449-0.065L60.706,103.751z M99.563,71.605l4.188,0.619l0.067-0.449l-4.188-0.619
	L99.563,71.605z M33.37,61.326l-4.189-0.622l-0.067,0.449l4.189,0.622L33.37,61.326z M60.706,29.181l0.621,4.188l0.449-0.065
	l-0.621-4.189L60.706,29.181z M71.156,99.627l0.622,4.189l0.448-0.065l-0.622-4.189L71.156,99.627z M99.629,61.775l4.189-0.621
	l-0.067-0.449l-4.188,0.621L99.629,61.775z M33.303,71.156l-4.188,0.62l0.067,0.449l4.188-0.62L33.303,71.156z M86.599,39.699
	l2.522-3.4l-0.363-0.271l-2.522,3.399L86.599,39.699z M46.333,93.23l-2.523,3.402l0.365,0.271l2.521-3.401L46.333,93.23z
	 M93.233,86.599l3.4,2.522l0.27-0.362l-3.4-2.523L93.233,86.599z M39.701,46.333l-3.402-2.523l-0.271,0.362l3.402,2.524
	L39.701,46.333z M49.442,37.621l-2.178-3.631l-0.39,0.231l2.177,3.633L49.442,37.621z M83.49,95.31l2.177,3.633l0.39-0.233
	l-2.177-3.633L83.49,95.31z M95.309,49.441l3.633-2.178l-0.233-0.389l-3.632,2.178L95.309,49.441z M37.621,83.489l-3.631,2.177
	l0.233,0.389l3.631-2.178L37.621,83.489z M74.383,33.921l0.44,0.111l1.029-4.108l-0.44-0.109L74.383,33.921z M57.079,103.008
	l0.44,0.108l1.028-4.107l-0.439-0.11L57.079,103.008z M98.899,74.824l4.108,1.027l0.11-0.44l-4.108-1.028L98.899,74.824z
	 M34.032,58.108l-4.107-1.029l-0.111,0.438l4.108,1.03L34.032,58.108z M55.395,34.855l-1.426-3.988l-0.428,0.152l1.428,3.988
	L55.395,34.855z M77.535,98.076l1.427,3.987l0.428-0.152l-1.427-3.987L77.535,98.076z M98.077,55.396l3.987-1.428l-0.152-0.427
	l-3.987,1.426L98.077,55.396z M34.854,77.534l-3.986,1.427l0.153,0.427l3.986-1.426L34.854,77.534z M80.991,36.284l1.81-3.827
	l-0.41-0.193l-1.81,3.827L80.991,36.284z M51.94,96.646l-1.811,3.828l0.41,0.193l1.811-3.828L51.94,96.646z M96.645,80.99
	l3.829,1.811l0.193-0.411l-3.829-1.81L96.645,80.99z M36.286,51.94l-3.829-1.812l-0.193,0.41l3.829,1.811L36.286,51.94z
	 M44.141,41.497l-2.843-3.137l-0.336,0.305l2.844,3.136L44.141,41.497z M88.79,91.434l2.844,3.138l0.336-0.305l-2.844-3.137
	L88.79,91.434z M91.436,44.142l3.136-2.846l-0.306-0.334l-3.137,2.844L91.436,44.142z M41.496,88.79l-3.137,2.844l0.305,0.335
	l3.138-2.841L41.496,88.79z M67.882,33.002l0.453,0.023l0.208-4.23l-0.453-0.023L67.882,33.002z M64.388,104.135l0.452,0.024
	l0.208-4.231l-0.452-0.022L64.388,104.135z M99.907,68.336l4.229,0.207l0.022-0.454l-4.229-0.206L99.907,68.336z M33.025,64.597
	l-4.23-0.209l-0.023,0.453l4.231,0.209L33.025,64.597z"/>
<path fill="#FFFFFF" d="M110.438,67.465c0,12.243-4.963,23.326-12.986,31.35l6.744,6.745c9.75-9.75,15.779-23.218,15.779-38.095
	c0-14.876-6.029-28.345-15.777-38.094l-6.746,6.745C105.475,44.139,110.438,55.222,110.438,67.465z"/>
<g>
	<path fill="#FFFFFF" d="M38.299,20.159l4.318-2.163c0.599-0.3,1.152-0.468,1.66-0.504c0.507-0.036,0.965,0.023,1.372,0.177
		c0.407,0.154,0.764,0.387,1.07,0.697s0.556,0.658,0.749,1.042c0.197,0.394,0.327,0.804,0.39,1.231
		c0.063,0.427,0.034,0.85-0.086,1.268c-0.121,0.418-0.347,0.82-0.68,1.205c-0.333,0.385-0.799,0.728-1.398,1.027l-2.213,1.108
		l1.719,3.434l-2.106,1.055L38.299,20.159z M42.662,23.611l1.636-0.819c0.241-0.121,0.465-0.255,0.67-0.403
		c0.206-0.147,0.368-0.315,0.486-0.503c0.118-0.188,0.182-0.401,0.19-0.641s-0.062-0.511-0.215-0.815
		c-0.152-0.304-0.327-0.524-0.524-0.661c-0.197-0.136-0.406-0.213-0.627-0.231c-0.222-0.018-0.453,0.012-0.694,0.088
		c-0.242,0.076-0.483,0.174-0.725,0.295l-1.636,0.819L42.662,23.611z"/>
	<path fill="#FFFFFF" d="M57.104,20.21l0.087-0.021l3.601,3.246l-2.586,0.599l-3.5-3.146l-1.125,0.261l0.87,3.755l-2.294,0.532
		l-2.42-10.449l4.691-1.086c0.652-0.151,1.232-0.186,1.739-0.103c0.507,0.083,0.942,0.246,1.307,0.49
		c0.364,0.244,0.659,0.553,0.884,0.927c0.226,0.374,0.387,0.77,0.483,1.189c0.082,0.351,0.113,0.71,0.096,1.079
		c-0.018,0.369-0.092,0.722-0.224,1.061c-0.132,0.338-0.329,0.651-0.591,0.938C57.859,19.769,57.52,20.011,57.104,20.21z
		 M54.226,15.827l-1.783,0.413l0.728,3.142l1.783-0.413c0.272-0.063,0.526-0.143,0.761-0.238c0.235-0.095,0.428-0.223,0.582-0.381
		s0.26-0.353,0.319-0.582c0.06-0.229,0.052-0.51-0.025-0.841c-0.079-0.341-0.196-0.602-0.35-0.781
		c-0.155-0.18-0.335-0.305-0.541-0.375c-0.207-0.07-0.435-0.094-0.687-0.072C54.761,15.721,54.499,15.764,54.226,15.827z"/>
	<path fill="#FFFFFF" d="M64.79,21.267l6.044,0.098l-0.032,1.98l-8.324-0.135l0.174-10.739l7.814,0.126l-0.032,1.98l-5.535-0.09
		l-0.039,2.415l4.89,0.08l-0.034,2.084l-4.89-0.079L64.79,21.267z"/>
	<path fill="#FFFFFF" d="M74.887,20.422c-0.079,0.351-0.083,0.663-0.011,0.935c0.071,0.273,0.195,0.508,0.371,0.707
		c0.176,0.198,0.394,0.366,0.656,0.501c0.261,0.136,0.548,0.239,0.86,0.31c0.205,0.046,0.428,0.079,0.67,0.098
		c0.242,0.019,0.476,0.002,0.703-0.049s0.428-0.146,0.603-0.287c0.175-0.14,0.292-0.341,0.352-0.605
		c0.063-0.283,0.025-0.532-0.115-0.749c-0.141-0.216-0.344-0.418-0.609-0.606c-0.265-0.188-0.573-0.366-0.925-0.532
		s-0.706-0.346-1.062-0.54c-0.368-0.186-0.722-0.391-1.061-0.617c-0.339-0.225-0.629-0.482-0.871-0.773
		c-0.242-0.29-0.416-0.622-0.521-0.994c-0.106-0.372-0.104-0.802,0.007-1.29c0.121-0.537,0.341-0.977,0.66-1.32
		c0.318-0.343,0.692-0.604,1.123-0.784s0.894-0.28,1.391-0.301c0.497-0.021,0.979,0.021,1.448,0.127
		c0.546,0.123,1.057,0.303,1.531,0.538s0.877,0.534,1.205,0.895s0.56,0.78,0.692,1.256c0.134,0.476,0.132,1.017-0.004,1.621
		l-2.225-0.502c0.051-0.317,0.044-0.59-0.022-0.82c-0.065-0.23-0.178-0.425-0.337-0.583c-0.159-0.159-0.354-0.29-0.587-0.394
		s-0.486-0.187-0.759-0.249c-0.185-0.042-0.375-0.064-0.569-0.067c-0.194-0.003-0.378,0.027-0.551,0.091s-0.326,0.16-0.458,0.289
		c-0.132,0.129-0.222,0.301-0.27,0.516c-0.046,0.205-0.045,0.38,0.004,0.524c0.049,0.145,0.177,0.294,0.383,0.448
		c0.206,0.154,0.499,0.333,0.878,0.537s0.877,0.462,1.494,0.775c0.12,0.058,0.276,0.137,0.469,0.237
		c0.193,0.1,0.394,0.222,0.602,0.367s0.411,0.315,0.607,0.514c0.195,0.198,0.364,0.426,0.507,0.684
		c0.142,0.257,0.237,0.548,0.287,0.872c0.05,0.324,0.03,0.681-0.058,1.071c-0.108,0.478-0.301,0.901-0.579,1.269
		c-0.277,0.368-0.633,0.659-1.065,0.874c-0.434,0.215-0.94,0.347-1.52,0.395c-0.58,0.048-1.226-0.008-1.938-0.168
		c-0.575-0.13-1.117-0.33-1.625-0.598s-0.933-0.6-1.274-0.995s-0.583-0.854-0.727-1.379s-0.137-1.107,0.018-1.749L74.887,20.422z"/>
	<path fill="#FFFFFF" d="M84.989,23.394c-0.154,0.325-0.227,0.629-0.217,0.91c0.011,0.282,0.079,0.539,0.207,0.771
		s0.304,0.443,0.529,0.633c0.226,0.19,0.482,0.354,0.771,0.491c0.189,0.09,0.4,0.171,0.632,0.243s0.464,0.107,0.696,0.106
		c0.233,0,0.45-0.049,0.651-0.147c0.202-0.098,0.36-0.269,0.477-0.513c0.124-0.262,0.142-0.514,0.052-0.756s-0.243-0.484-0.46-0.726
		c-0.218-0.242-0.479-0.482-0.786-0.722c-0.308-0.24-0.613-0.493-0.918-0.76c-0.318-0.262-0.618-0.54-0.899-0.834
		c-0.28-0.294-0.507-0.609-0.68-0.946c-0.172-0.336-0.269-0.698-0.29-1.084c-0.021-0.387,0.076-0.806,0.291-1.257
		c0.235-0.497,0.547-0.877,0.933-1.143c0.387-0.265,0.809-0.438,1.269-0.519c0.459-0.081,0.933-0.077,1.422,0.012
		s0.951,0.236,1.385,0.442c0.506,0.24,0.964,0.528,1.376,0.862c0.411,0.334,0.737,0.713,0.979,1.138
		c0.241,0.424,0.374,0.884,0.4,1.377c0.025,0.494-0.096,1.021-0.361,1.581l-2.06-0.979c0.119-0.298,0.172-0.566,0.158-0.805
		c-0.014-0.239-0.08-0.454-0.2-0.644s-0.282-0.361-0.486-0.514c-0.205-0.152-0.434-0.289-0.687-0.409
		c-0.171-0.082-0.352-0.145-0.54-0.19c-0.189-0.045-0.375-0.056-0.558-0.033c-0.184,0.024-0.354,0.084-0.51,0.181
		c-0.157,0.097-0.282,0.245-0.377,0.444c-0.09,0.189-0.127,0.36-0.11,0.512s0.108,0.325,0.275,0.521s0.413,0.435,0.739,0.717
		c0.325,0.282,0.754,0.644,1.286,1.084c0.104,0.083,0.239,0.194,0.405,0.334c0.166,0.14,0.335,0.303,0.507,0.49
		c0.171,0.187,0.331,0.398,0.479,0.635c0.148,0.236,0.263,0.496,0.345,0.778c0.081,0.282,0.111,0.587,0.089,0.914
		s-0.12,0.671-0.292,1.032c-0.21,0.443-0.491,0.812-0.843,1.11c-0.353,0.298-0.763,0.504-1.232,0.619s-0.993,0.132-1.569,0.051
		c-0.576-0.08-1.194-0.277-1.854-0.59c-0.533-0.253-1.018-0.567-1.454-0.94c-0.438-0.374-0.779-0.791-1.025-1.251
		c-0.246-0.46-0.381-0.962-0.405-1.505s0.109-1.11,0.402-1.702L84.989,23.394z"/>
</g>
<g>
	<path fill="#FFFFFF" d="M41.171,109.951l-2.074,3.952l-1.989-1.043l4.884-9.309l1.989,1.044l-1.767,3.367l4.303,2.258l1.753-3.342
		l2.002,1.051l-4.87,9.282l-2.002-1.051l2.074-3.952L41.171,109.951z"/>
	<path fill="#FFFFFF" d="M61.57,115.964c-0.152,0.738-0.436,1.399-0.851,1.983c-0.416,0.584-0.912,1.066-1.49,1.446
		c-0.578,0.381-1.219,0.644-1.924,0.788c-0.704,0.145-1.421,0.142-2.149-0.009c-0.738-0.152-1.399-0.434-1.984-0.845
		c-0.585-0.41-1.067-0.904-1.448-1.482c-0.381-0.578-0.644-1.217-0.789-1.917c-0.146-0.699-0.142-1.418,0.01-2.156
		c0.152-0.738,0.434-1.402,0.846-1.991c0.412-0.59,0.906-1.075,1.484-1.455c0.578-0.381,1.217-0.644,1.917-0.789
		s1.418-0.143,2.157,0.01c0.728,0.15,1.387,0.432,1.977,0.843s1.075,0.906,1.455,1.484s0.646,1.22,0.795,1.925
		C61.723,114.504,61.722,115.227,61.57,115.964z M56.899,111.718c-0.432-0.089-0.854-0.088-1.267,0.001
		c-0.414,0.09-0.791,0.249-1.133,0.479c-0.342,0.229-0.636,0.516-0.882,0.86c-0.246,0.344-0.414,0.731-0.502,1.163
		c-0.089,0.431-0.089,0.854,0.001,1.267c0.089,0.413,0.247,0.791,0.471,1.132c0.224,0.341,0.509,0.635,0.853,0.88
		c0.344,0.246,0.732,0.413,1.163,0.502c0.432,0.09,0.852,0.089,1.26-0.002c0.409-0.091,0.783-0.248,1.125-0.473
		c0.341-0.225,0.632-0.509,0.873-0.854c0.241-0.345,0.406-0.733,0.495-1.164c0.089-0.432,0.091-0.854,0.006-1.266
		c-0.085-0.412-0.239-0.791-0.462-1.138c-0.224-0.346-0.505-0.641-0.844-0.886S57.331,111.807,56.899,111.718z"/>
	<path fill="#FFFFFF" d="M66.4,112.626l-3.331,0.116l-0.059-1.937l8.937-0.272l0.059,1.937l-3.302,0.086l0.261,8.541l-2.304,0.07
		L66.4,112.626z"/>
	<path fill="#FFFFFF" d="M78.461,117.755l5.695-1.603l0.525,1.865l-7.843,2.208l-2.848-10.119l7.362-2.072l0.525,1.865l-5.215,1.469
		l0.641,2.274l4.607-1.297l0.553,1.965l-4.607,1.297L78.461,117.755z"/>
	<path fill="#FFFFFF" d="M84.056,106.904l1.974-1.104l4.157,7.432l4.689-2.624l0.946,1.691l-6.662,3.728L84.056,106.904z"/>
</g>
</svg>
