<?xml version="1.0" encoding="utf-8"?>
<!-- Generator: Adobe Illustrator 16.0.0, SVG Export Plug-In . SVG Version: 6.00 Build 0)  -->
<!DOCTYPE svg PUBLIC "-//W3C//DTD SVG 1.1//EN" "http://www.w3.org/Graphics/SVG/1.1/DTD/svg11.dtd">
<svg version="1.1" id="Layer_1" xmlns="http://www.w3.org/2000/svg" xmlns:xlink="http://www.w3.org/1999/xlink" x="0px" y="0px"
	 width="15.775px" height="16.52px" viewBox="0 0 15.775 16.52" enable-background="new 0 0 15.775 16.52" xml:space="preserve">
<rect x="5.58" y="1.674" fill="#E22026" width="4.828" height="1"/>
<polygon fill="#E22026" points="15.645,15.217 14.645,15.217 14.645,14.76 14.766,2.674 12.835,2.674 12.835,1.674 15.775,1.674 "/>
<polygon fill="#E22026" points="1.025,15.217 0.025,15.217 0.025,14.76 0.156,1.674 3.089,1.674 3.089,2.674 1.146,2.674 "/>
<rect x="1.377" y="15.507" fill="#E22026" width="12.918" height="1"/>
<rect x="0.652" y="5.972" fill="#E22026" width="14.618" height="1"/>
<g>
	<rect x="2.943" y="8.734" fill="#E22026" width="1.539" height="1.539"/>
	<rect x="7.192" y="8.734" fill="#E22026" width="1.539" height="1.539"/>
	<rect x="11.44" y="8.734" fill="#E22026" width="1.539" height="1.539"/>
	<rect x="2.943" y="12.556" fill="#E22026" width="1.539" height="1.539"/>
	<rect x="7.192" y="12.556" fill="#E22026" width="1.539" height="1.539"/>
	<rect x="11.44" y="12.556" fill="#E22026" width="1.539" height="1.539"/>
</g>
<path fill="#E22026" d="M1.533,16.52c-0.079,0-0.154-0.007-0.23-0.019c-0.617-0.09-1.127-0.562-1.265-1.174
	C0.014,15.228,0,15.11,0,14.989c0-0.122,0.013-0.234,0.039-0.345l0.973,0.23C1.004,14.909,1,14.945,1,14.989
	c0,0.042,0.004,0.079,0.011,0.109c0.05,0.22,0.226,0.382,0.438,0.413l0.316,0.989C1.69,16.513,1.613,16.52,1.533,16.52z"/>
<path fill="#E22026" d="M14.137,16.52c-0.08,0-0.157-0.007-0.232-0.019l0.152-0.988c0.026,0.004,0.053,0.007,0.08,0.007
	c0.297-0.04,0.473-0.203,0.521-0.413c0.009-0.038,0.013-0.075,0.013-0.117c0-0.044-0.004-0.08-0.012-0.114l0.973-0.23
	c0.026,0.11,0.039,0.223,0.039,0.345c0,0.121-0.014,0.238-0.04,0.346c-0.138,0.609-0.633,1.07-1.26,1.166
	C14.296,16.513,14.216,16.52,14.137,16.52z"/>
<path fill="#E22026" d="M4.331,5.286c-0.961,0-1.742-0.781-1.742-1.742V1.742C2.589,0.781,3.37,0,4.331,0s1.742,0.781,1.742,1.742
	v1.802C6.073,4.505,5.292,5.286,4.331,5.286z M4.331,1C3.922,1,3.589,1.333,3.589,1.742v1.802c0,0.409,0.333,0.742,0.742,0.742
	s0.742-0.333,0.742-0.742V1.742C5.073,1.333,4.74,1,4.331,1z"/>
<path fill="#E22026" d="M11.598,5.286c-0.961,0-1.742-0.781-1.742-1.742V1.742C9.855,0.781,10.637,0,11.598,0
	s1.742,0.781,1.742,1.742v1.802C13.34,4.505,12.559,5.286,11.598,5.286z M11.598,1c-0.409,0-0.742,0.333-0.742,0.742v1.802
	c0,0.409,0.333,0.742,0.742,0.742s0.742-0.333,0.742-0.742V1.742C12.34,1.333,12.007,1,11.598,1z"/>
</svg>
