<?xml version="1.0" encoding="utf-8"?>
<!-- Generator: Adobe Illustrator 16.0.0, SVG Export Plug-In . SVG Version: 6.00 Build 0)  -->
<!DOCTYPE svg PUBLIC "-//W3C//DTD SVG 1.1//EN" "http://www.w3.org/Graphics/SVG/1.1/DTD/svg11.dtd">
<svg version="1.1" id="Layer_1" xmlns="http://www.w3.org/2000/svg" xmlns:xlink="http://www.w3.org/1999/xlink" x="0px" y="0px"
	 width="62.262px" height="31.789px" viewBox="0 0 62.262 31.789" enable-background="new 0 0 62.262 31.789" xml:space="preserve">
<path fill="#979FA4" d="M0.963,16.859h58.006L45.686,30.144c-0.377,0.375-0.377,0.984,0,1.363c0.377,0.375,0.99,0.375,1.365,0
	l14.93-14.932c0.009-0.008,0.017-0.019,0.023-0.027c0.02-0.021,0.039-0.041,0.055-0.063c0.015-0.017,0.027-0.034,0.037-0.05
	c0.014-0.023,0.027-0.045,0.041-0.067c0.014-0.02,0.021-0.04,0.031-0.061c0.008-0.014,0.016-0.027,0.021-0.044
	c0.002-0.007,0.006-0.016,0.009-0.023c0.01-0.021,0.016-0.043,0.021-0.064c0.008-0.022,0.014-0.048,0.021-0.071
	c0.004-0.021,0.006-0.043,0.008-0.065c0.006-0.024,0.01-0.049,0.01-0.073c0.004-0.023,0.004-0.045,0.004-0.068
	c0-0.024,0-0.046-0.004-0.071c0-0.022-0.004-0.048-0.01-0.072c-0.002-0.021-0.004-0.043-0.008-0.065
	c-0.009-0.024-0.015-0.048-0.021-0.074c-0.006-0.021-0.012-0.041-0.02-0.061c-0.005-0.009-0.009-0.018-0.011-0.027
	c-0.006-0.015-0.014-0.029-0.022-0.045c-0.008-0.019-0.017-0.038-0.029-0.056c-0.014-0.024-0.025-0.047-0.041-0.068
	c-0.01-0.016-0.022-0.034-0.037-0.05c-0.016-0.023-0.033-0.043-0.053-0.062c-0.01-0.01-0.016-0.021-0.025-0.031L47.05,0.286
	C46.861,0.094,46.615,0,46.369,0s-0.494,0.094-0.685,0.282c-0.377,0.377-0.377,0.989,0,1.363v0.003L58.968,14.93H0.963
	C0.43,14.931,0,15.362,0,15.896C0,16.427,0.43,16.859,0.963,16.859z"/>
</svg>
